<svg width="20" height="21" viewBox="0 0 20 21" fill="none" xmlns="http://www.w3.org/2000/svg">
<mask id="mask0_39_143" style="mask-type:luminance" maskUnits="userSpaceOnUse" x="0" y="0" width="20" height="21">
<path d="M20 0.0585938H0.000976562V20.0576H20V0.0585938Z" fill="white"/>
</mask>
<g mask="url(#mask0_39_143)">
<path fill-rule="evenodd" clip-rule="evenodd" d="M4.45759 16.7956C6.0199 18.0746 7.9775 18.7722 9.9966 18.7693C11.14 18.7691 12.2722 18.5434 13.3282 18.1052C14.3844 17.667 15.3438 17.025 16.1516 16.2158C17.5798 14.7885 18.4686 12.91 18.6667 10.9007C18.8648 8.89135 18.3598 6.87545 17.2378 5.1968C16.1159 3.51812 14.4464 2.28057 12.514 1.69512C10.5816 1.10967 8.50605 1.21257 6.64105 1.98629C4.77609 2.76 3.23724 4.15662 2.28682 5.93805C1.33639 7.71945 1.03324 9.7754 1.42909 11.7553C1.82495 13.7352 2.89527 15.5166 4.45759 16.7956ZM8.17605 2.78549C8.76755 2.63825 9.3787 2.56265 9.9966 2.56331C10.6176 2.5641 11.2306 2.64182 11.8229 2.7912C11.8264 2.84573 11.8374 2.89964 11.8558 2.95136C12.118 3.74622 12.335 4.55198 12.5069 5.3649L12.4795 5.31935C12.4795 5.31935 12.6002 5.69875 12.4527 5.85475C12.3994 5.9111 12.3094 5.93705 12.2163 5.9472C10.7434 5.8088 9.26065 5.8083 7.78765 5.9457C7.68505 5.9378 7.5824 5.91255 7.52395 5.8507C7.4626 5.78585 7.44755 5.68245 7.4509 5.58365C7.6291 4.69937 7.8606 3.82312 8.14545 2.95971C8.16385 2.90319 8.1741 2.84453 8.17605 2.78549ZM12.1423 7.1626C12.3163 7.2144 12.4833 7.2893 12.6388 7.38585C12.7692 7.4958 12.8474 7.6983 12.8941 7.8952C13.031 9.32615 13.0315 10.7669 12.8955 12.1979C12.8495 12.3976 12.7712 12.6047 12.6388 12.7163C12.4587 12.8282 12.2631 12.911 12.0591 12.9625C10.6736 13.0887 9.27945 13.0871 7.89425 12.9576C7.69695 12.9058 7.5078 12.8247 7.33325 12.7163C7.2361 12.6346 7.1681 12.5015 7.1206 12.3576C6.9645 10.8236 6.9653 9.27745 7.123 7.7436C7.1708 7.6001 7.2389 7.46745 7.33575 7.38585C7.4894 7.29045 7.65445 7.2162 7.82635 7.16445C9.26165 7.0265 10.7069 7.0259 12.1423 7.1626ZM17.097 8.2029C16.2491 7.9229 15.3889 7.6944 14.5206 7.51735C14.4066 7.5059 14.2736 7.5129 14.1959 7.5863C14.1451 7.6344 14.1191 7.7122 14.1069 7.7953C14.2502 9.2996 14.2495 10.8142 14.1048 12.3183C14.1176 12.3971 14.1435 12.4701 14.192 12.5159C14.3481 12.6634 14.7275 12.5429 14.7275 12.5429L14.6894 12.5659C15.5034 12.3937 16.3103 12.1761 17.1063 11.9132C17.1593 11.8948 17.2142 11.8841 17.2694 11.881C17.4751 11.0553 17.5405 10.1946 17.4563 9.33515C17.4198 8.96235 17.3556 8.5948 17.2651 8.23525C17.2078 8.2335 17.151 8.2226 17.097 8.2029ZM14.6477 6.3034C15.3561 6.445 16.0597 6.6192 16.7561 6.82605C16.3924 6.06645 15.9007 5.3679 15.2966 4.76329C14.6913 4.15777 13.9933 3.66628 13.2359 3.3027C13.453 4.03546 13.634 4.7761 13.7788 5.522C13.8288 5.6969 13.9058 5.8634 14.0073 6.0154C14.2023 6.16395 14.4312 6.2615 14.6734 6.2993L14.6477 6.3034ZM5.7895 12.5403C5.7305 12.5961 5.63955 12.6135 5.54925 12.6137C4.65642 12.4346 3.77176 12.2011 2.90023 11.9132C2.83797 11.8922 2.77294 11.8813 2.70761 11.8808C2.44143 10.8123 2.41181 9.6908 2.63057 8.59625C2.65483 8.47485 2.68205 8.3543 2.71215 8.23475C2.77297 8.2334 2.83331 8.2227 2.89107 8.2029C3.73979 7.92265 4.60096 7.69395 5.47 7.51685C5.58285 7.5061 5.713 7.514 5.7895 7.5863C5.86275 7.6556 5.88465 7.78685 5.8872 7.9066C5.7576 9.33865 5.75765 10.7795 5.8874 12.2116C5.88565 12.3335 5.86455 12.4694 5.7895 12.5403ZM6.74545 3.37323C6.5545 4.02757 6.3922 4.68805 6.2585 5.3528L6.25245 5.31545C6.21265 5.5658 6.11875 5.80455 5.97805 6.0154C5.7829 6.1639 5.5538 6.26145 5.3115 6.2993L5.3387 6.3037C4.62651 6.44605 3.91925 6.6214 3.21921 6.82975C3.69108 5.843 4.37634 4.96435 5.23415 4.2618C5.66595 3.90813 6.1329 3.60612 6.6255 3.35917C6.6646 3.36778 6.7048 3.37254 6.74545 3.37323ZM3.29504 13.4579C3.30678 13.4115 3.31293 13.3638 3.31326 13.3157C4.06443 13.536 4.82519 13.7186 5.5927 13.8631C5.73045 13.9137 5.8604 13.9848 5.97805 14.0743C6.11875 14.2852 6.21265 14.5239 6.25245 14.7743L6.2561 14.7517C6.39025 15.4205 6.55335 16.0849 6.74545 16.7432C6.6968 16.7438 6.6485 16.7502 6.60165 16.7624C5.22805 16.0676 4.09688 14.9645 3.36811 13.5984C3.34325 13.5518 3.31888 13.5049 3.29504 13.4579ZM8.14545 17.1647C7.8611 16.3027 7.62985 15.4279 7.45175 14.545C7.4458 14.4407 7.45865 14.3279 7.52395 14.2589C7.57555 14.2043 7.6616 14.1782 7.7516 14.1674C8.49755 14.2377 9.2473 14.2726 9.99825 14.2717C10.7524 14.2728 11.5054 14.238 12.2545 14.1675C12.3335 14.1803 12.4067 14.2063 12.4527 14.2549C12.6002 14.4109 12.4795 14.7904 12.4795 14.7904L12.5063 14.7459C12.3345 15.5578 12.1177 16.3625 11.8558 17.1564C11.8333 17.2163 11.8214 17.2795 11.8204 17.3433C10.6209 17.6453 9.36915 17.6451 8.17635 17.3482C8.1752 17.286 8.16485 17.2241 8.14545 17.1647ZM13.2211 16.8383C13.4453 16.0878 13.6315 15.3289 13.7797 14.5645C13.8298 14.3908 13.9064 14.2254 14.0073 14.0743C14.1176 13.9903 14.2388 13.9225 14.3671 13.8726C15.1502 13.7272 15.9264 13.5422 16.6927 13.3182C16.693 13.3517 16.6962 13.385 16.7022 13.4178C16.5612 13.7001 16.4021 13.9745 16.225 14.2392C15.4715 15.3654 14.4314 16.2605 13.2211 16.8383Z" fill="#333333"/>
</g>
</svg>
