<svg width="20" height="21" viewBox="0 0 20 21" fill="none" xmlns="http://www.w3.org/2000/svg">
<path d="M7.30789 20.1144L12.7506 20.1144C13.0687 20.1144 13.3778 20.1058 13.6691 20.0889C13.9626 20.0719 14.249 20.0457 14.5204 20.0113C14.7912 19.9768 15.0554 19.933 15.3056 19.8806C15.5543 19.8286 15.7968 19.7664 16.0258 19.6957C16.2488 19.6274 16.468 19.5473 16.6826 19.4557C16.8861 19.3688 17.0844 19.2698 17.2763 19.1596C17.461 19.0531 17.6388 18.9349 17.8085 18.8058C17.9745 18.6791 18.132 18.5414 18.2799 18.3938C18.4274 18.2458 18.5651 18.0883 18.6919 17.9222C18.8208 17.7524 18.9389 17.5746 19.0453 17.3899C19.1557 17.1979 19.2546 16.9996 19.3416 16.796C19.433 16.5814 19.5131 16.3622 19.5815 16.1392C19.6517 15.9109 19.7139 15.6685 19.7661 15.4187C19.818 15.1712 19.8619 14.9071 19.8968 14.6333C19.931 14.3644 19.957 14.078 19.9745 13.7819C19.9913 13.4871 20 13.1781 20 12.8634V7.25124C20 6.93657 19.9912 6.62746 19.9745 6.33274C19.957 6.03668 19.931 5.75025 19.8968 5.48138C19.8617 5.20672 19.8178 4.94238 19.7661 4.69583C19.7142 4.44709 19.6521 4.20466 19.5815 3.97524C19.5131 3.75231 19.433 3.53312 19.3416 3.31858C19.2546 3.11496 19.1557 2.91665 19.0453 2.7247C18.9389 2.53997 18.8209 2.36221 18.6919 2.19249C18.5652 2.02627 18.4275 1.86871 18.2799 1.72086C18.132 1.57315 17.9745 1.43542 17.8085 1.30859C17.6387 1.1796 17.461 1.0615 17.2763 0.954989C17.0844 0.844724 16.8861 0.745817 16.6826 0.658786C16.468 0.56726 16.2488 0.487157 16.0258 0.418813C15.7987 0.34851 15.5564 0.286393 15.3056 0.233942C15.0564 0.181798 14.7922 0.137819 14.5204 0.10322C14.2478 0.0687672 13.9614 0.0426114 13.6691 0.0257037C13.3754 0.00868585 13.0664 0 12.7506 0L7.30812 0C7.12443 0.00585623 6.95025 0.0829962 6.82246 0.215069C6.69467 0.347147 6.62329 0.523773 6.62352 0.707555C6.62347 0.799155 6.6415 0.889857 6.67664 0.974477C6.71171 1.05909 6.76309 1.13595 6.82797 1.20066C6.89279 1.26536 6.96974 1.31664 7.05445 1.35155C7.1391 1.38647 7.22985 1.40434 7.32146 1.40412C7.33451 1.4041 7.34749 1.40375 7.36037 1.40306H12.7506C13.8552 1.40306 14.7491 1.50366 15.4832 1.71063C16.2405 1.9244 16.8318 2.25156 17.2907 2.71101C17.7497 3.17004 18.0766 3.76149 18.2898 4.5191C18.4965 5.25281 18.5969 6.14656 18.5969 7.2513V12.8635C18.5969 13.9682 18.4965 14.8618 18.2898 15.5955C18.0767 16.3529 17.7497 16.9442 17.2907 17.4038C16.8317 17.8634 16.2405 18.1904 15.4832 18.4038C14.7491 18.6108 13.8552 18.7114 12.7506 18.7114H7.36419C7.35028 18.7105 7.3363 18.7101 7.32227 18.7101C7.13603 18.7122 6.95808 18.7878 6.82722 18.9203C6.69635 19.0528 6.62306 19.2317 6.62329 19.4179C6.62323 19.6006 6.69496 19.776 6.82304 19.9063C6.95112 20.0366 7.12525 20.1113 7.30789 20.1144Z" fill="#FF5757"/>
<path fill-rule="evenodd" clip-rule="evenodd" d="M10.5945 12.1482C10.5945 13.6224 10.0613 14.7439 9.09669 15.3007C8.68003 15.542 8.20597 15.6666 7.72442 15.6613C7.06568 15.6613 6.34421 15.4495 5.6149 15.026L1.98398 12.9323C0.705798 12.1872 0 11.1676 0 10.0541C0 8.94058 0.705769 7.92108 1.98398 7.184L5.61484 5.09014C6.89301 4.35295 8.12433 4.25103 9.09675 4.80788C10.0612 5.36469 10.5945 6.48613 10.5945 7.96039V9.36107H15.3381C15.3567 9.35951 15.3756 9.35875 15.3947 9.35875C15.5809 9.36084 15.7589 9.43639 15.8897 9.56888C16.0206 9.70143 16.094 9.88025 16.0937 10.0665C16.0937 10.1582 16.0757 10.2488 16.0406 10.3335C16.0055 10.4181 15.954 10.495 15.8892 10.5597C15.8244 10.6244 15.7474 10.6757 15.6627 10.7106C15.578 10.7455 15.4873 10.7633 15.3957 10.7631C15.368 10.7631 15.3401 10.7615 15.3126 10.7583H10.5945V12.1482ZM9.23324 8.05467C9.23324 7.06595 8.92622 6.33943 8.36437 6.01734C8.13523 5.89076 7.87703 5.82617 7.6153 5.83005C7.18089 5.83005 6.68653 5.97994 6.16226 6.28696L2.69446 8.28683C1.83322 8.78119 1.36126 9.41042 1.36126 10.0545C1.36126 10.6986 1.83322 11.3278 2.69446 11.8221L6.16226 13.822C7.02364 14.3163 7.80252 14.4137 8.36437 14.0916C8.92622 13.7696 9.23324 13.043 9.23324 12.0544V8.05467Z" fill="#FF5757"/>
</svg>
